HIERARCHY
ROOT Hips
{
 OFFSET 0.000000 0.000000 0.000000
 CHANNELS 6 Xposition Yposition Zposition Yrotation Xrotation Zrotation
 JOINT Chest
 {
  OFFSET 0.000000 10.354800 0.006500
  CHANNELS 3 Yrotation Xrotation Zrotation
  JOINT Chest2
  {
   OFFSET 0.000000 10.435800 -0.013200
   CHANNELS 3 Yrotation Xrotation Zrotation
   JOINT Chest3
   {
    OFFSET 0.000000 10.393700 0.000000
    CHANNELS 3 Yrotation Xrotation Zrotation
    JOINT Chest4
    {
     OFFSET 0.000000 10.383100 0.000000
     CHANNELS 3 Yrotation Xrotation Zrotation
     JOINT Neck
     {
      OFFSET 0.000000 15.694000 0.000000
      CHANNELS 3 Yrotation Xrotation Zrotation
      JOINT Head
      {
       OFFSET 0.000000 9.711000 -0.028000
       CHANNELS 3 Yrotation Xrotation Zrotation
       End Site
       {
        OFFSET 0.000000 18.578700 -0.014800
       }
      }
     }
     JOINT RightCollar
     {
      OFFSET -3.157200 10.367500 0.000000
      CHANNELS 3 Yrotation Xrotation Zrotation
      JOINT RightShoulder
      {
       OFFSET -14.482500 0.000000 0.000000
       CHANNELS 3 Yrotation Xrotation Zrotation
       JOINT RightElbow
       {
        OFFSET 0.000000 -31.707800 0.000000
        CHANNELS 3 Yrotation Xrotation Zrotation
        JOINT RightWrist
        {
         OFFSET 0.000000 -25.659300 0.000000
         CHANNELS 3 Yrotation Xrotation Zrotation
         End Site
         {
          OFFSET 0.000000 -18.994300 0.000000
         }
        }
       }
      }
     }
     JOINT LeftCollar
     {
      OFFSET 3.157200 10.367500 0.000000
      CHANNELS 3 Yrotation Xrotation Zrotation
      JOINT LeftShoulder
      {
       OFFSET 14.482500 0.000000 0.000000
       CHANNELS 3 Yrotation Xrotation Zrotation
       JOINT LeftElbow
       {
        OFFSET 0.000000 -31.707800 0.000000
        CHANNELS 3 Yrotation Xrotation Zrotation
        JOINT LeftWrist
        {
         OFFSET 0.000000 -25.659300 0.000000
         CHANNELS 3 Yrotation Xrotation Zrotation
         End Site
         {
          OFFSET 0.000000 -18.994300 0.000000
         }
        }
       }
      }
     }
    }
   }
  }
 }
 JOINT RightHip
 {
  OFFSET -8.365600 -0.032100 -0.003200
  CHANNELS 3 Yrotation Xrotation Zrotation
  JOINT RightKnee
  {
   OFFSET 0.000000 -43.980000 0.003100
   CHANNELS 3 Yrotation Xrotation Zrotation
   JOINT RightAnkle
   {
    OFFSET 0.000000 -42.882800 0.005200
    CHANNELS 3 Yrotation Xrotation Zrotation
    JOINT RightToe
    {
     OFFSET 0.000000 -4.915500 10.826300
     CHANNELS 3 Yrotation Xrotation Zrotation
     End Site
     {
      OFFSET 0.000000 -1.517500 6.175900
     }
    }
   }
  }
 }
 JOINT LeftHip
 {
  OFFSET 8.365600 -0.032100 -0.003200
  CHANNELS 3 Yrotation Xrotation Zrotation
  JOINT LeftKnee
  {
   OFFSET 0.000000 -43.980000 0.003100
   CHANNELS 3 Yrotation Xrotation Zrotation
   JOINT LeftAnkle
   {
    OFFSET 0.000000 -42.882800 0.005200
    CHANNELS 3 Yrotation Xrotation Zrotation
    JOINT LeftToe
    {
     OFFSET 0.000000 -4.915500 10.826300
     CHANNELS 3 Yrotation Xrotation Zrotation
     End Site
     {
      OFFSET 0.000000 -1.517500 6.175900
     }
    }
   }
  }
 }
}
MOTION
Frames: 10
Frame Time: 0.008333
-8.492604 126.441957 28.133853 176.775372 -19.191422 -4.792996 -2.335889 7.524203 2.080653 -0.106754 0.345050 0.097279 -0.223147 0.651631 0.203670 -2.198690 7.041804 1.975419 -0.161295 19.894651 -1.978323 0.310400 -4.645035 -2.077680 4.737934 5.638831 -6.163783 16.215308 -33.359910 -15.481719 -165.586909 -48.474124 -169.577131 -19.148280 -16.035968 -11.471852 1.778542 13.564584 6.982183 -15.782370 -41.633750 -2.869656 -178.311300 -46.440981 164.614182 3.493008 -13.634254 16.307463 6.668037 -59.786370 -6.596181 -139.584057 77.682714 -133.256370 -0.362294 -19.801215 2.921735 -0.011083 -0.003153 -0.005032 -14.215452 -60.845793 13.801490 118.602882 76.799078 116.887993 0.004720 -16.459239 -1.859465 -0.003820 0.002799 -0.001735
-8.489682 126.445003 28.135922 176.764049 -19.222506 -4.778360 -2.285635 7.514483 2.060713 -0.136727 0.374124 0.104549 -0.223129 0.642984 0.192946 -2.132709 7.047505 1.965918 -0.233614 19.901597 -1.951097 0.258949 -4.645233 -2.049450 4.679741 5.542547 -6.103169 16.714097 -33.500592 -15.564995 -164.893163 -48.495996 -169.848582 -18.925039 -15.398587 -10.170355 1.610166 13.650154 7.054866 -16.779926 -42.148205 -2.292873 -179.072020 -46.639145 165.250541 3.439770 -13.909174 15.226029 6.674983 -59.764963 -6.571686 -139.521403 77.663222 -133.207608 -0.367554 -19.800578 2.923750 -0.008100 -0.002251 -0.003678 -14.171918 -60.812213 13.779012 118.599744 76.807986 116.868862 0.002276 -16.455209 -1.848066 -0.007252 -0.000743 -0.003293
-8.485896 126.448064 28.137338 176.750614 -19.260377 -4.765855 -2.233335 7.525497 2.068881 -0.126610 0.369874 0.102454 -0.237896 0.653936 0.172660 -2.055315 7.048479 1.981445 -0.332986 19.951465 -1.940734 0.110957 -4.599323 -1.995777 4.607107 5.458145 -6.094434 17.193184 -33.587475 -15.709639 -164.415977 -48.504890 -170.014281 -18.862928 -14.800674 -9.028671 1.414428 13.726529 7.117929 -17.692479 -42.591492 -1.703796 -179.193413 -46.694585 165.575726 3.328475 -14.166407 14.222211 6.670290 -59.737278 -6.532393 -139.470300 77.640924 -133.177254 -0.372361 -19.804338 2.929875 -0.007207 -0.001988 -0.003272 -14.134992 -60.756725 13.781351 118.607854 76.838645 116.857144 -0.004781 -16.460718 -1.844451 0.001625 0.003220 0.000738
-8.482209 126.449992 28.140797 176.743262 -19.287924 -4.753984 -2.197311 7.530922 2.075756 -0.110694 0.355711 0.106815 -0.195946 0.634982 0.186804 -2.097085 7.091076 1.960890 -0.384771 19.993591 -1.938374 0.001816 -4.523751 -1.962492 4.607212 5.380386 -6.128877 17.648090 -33.635990 -15.913375 -164.054009 -48.517482 -170.118957 -18.926837 -14.326487 -8.139837 1.304003 13.782826 7.186483 -18.227660 -42.950658 -1.316373 -178.910991 -46.625061 165.575189 3.234757 -14.412278 13.370713 6.647472 -59.723691 -6.475747 -139.423441 77.610962 -133.163839 -0.386459 -19.807659 2.939754 -0.003886 -0.002297 -0.001765 -14.099529 -60.727856 13.754746 118.607115 76.843241 116.853258 0.000906 -16.453838 -1.849236 0.000173 -0.000158 0.000079
-8.478488 126.450761 28.146175 176.739599 -19.305278 -4.742947 -2.183315 7.516716 2.062081 -0.109310 0.355528 0.105570 -0.193557 0.634643 0.184652 -2.051740 7.090340 1.946116 -0.456520 20.072217 -1.918386 -0.055229 -4.439749 -1.927330 4.600126 5.335543 -6.153118 18.114481 -33.661411 -16.182301 -163.670141 -48.566566 -170.257659 -19.048463 -14.018990 -7.510331 1.224071 13.843904 7.302707 -18.309235 -43.217222 -1.173379 -178.571569 -46.493120 165.380766 3.195025 -14.598316 12.727756 6.659562 -59.709262 -6.479485 -139.476269 77.601861 -133.219626 -0.387633 -19.820150 2.937840 -0.009455 0.000229 -0.004293 -14.088487 -60.700320 13.757353 118.653002 76.860912 116.876395 0.001024 -16.454468 -1.843826 -0.000569 0.003866 -0.000259
-8.475530 126.452227 28.147700 176.724618 -19.345681 -4.721848 -2.170129 7.517566 2.016819 -0.110310 0.362987 0.103621 -0.192157 0.633844 0.180429 -2.034712 7.086138 1.896850 -0.476299 20.172942 -1.864905 -0.081588 -4.333633 -1.875410 4.642883 5.303162 -6.141187 18.610225 -33.668830 -16.515157 -163.116834 -48.681407 -170.540908 -19.167899 -13.851050 -7.057519 1.226701 13.889684 7.432382 -18.163862 -43.373025 -1.073355 -178.412896 -46.364749 165.176692 3.202577 -14.648015 12.308562 6.667876 -59.676484 -6.464053 -139.500881 77.582653 -133.257611 -0.392599 -19.829319 2.930346 -0.008659 0.001653 -0.003932 -14.059196 -60.651102 13.740343 118.710716 76.872454 116.912944 0.005548 -16.460457 -1.843655 -0.000362 0.003876 -0.000164
-8.471196 126.453281 28.149533 176.704552 -19.383697 -4.706335 -2.153325 7.539590 1.987590 -0.110030 0.362697 0.102113 -0.198493 0.620204 0.153537 -2.033497 7.086731 1.842124 -0.465351 20.279897 -1.801982 -0.084406 -4.212958 -1.811629 4.709711 5.268196 -6.123269 19.122439 -33.659776 -16.889712 -162.336272 -48.866851 -171.006458 -19.218412 -13.727936 -6.674289 1.271849 13.925922 7.574988 -18.000071 -43.461378 -0.888860 -178.519673 -46.289287 165.096562 3.222283 -14.506530 12.078122 6.626687 -59.650094 -6.394459 -139.476434 77.559998 -133.267325 -0.398849 -19.838588 2.926970 -0.005364 0.001425 -0.002435 -14.082160 -60.593663 13.778945 118.856090 76.907613 117.021204 0.029639 -16.476958 -1.852153 0.005226 0.007341 0.002373
-8.470052 126.454114 28.150163 176.678605 -19.424525 -4.670829 -2.134910 7.564789 1.936992 -0.109868 0.362403 0.100442 -0.200070 0.620125 0.152076 -2.041302 7.078295 1.789565 -0.448008 20.387723 -1.748212 -0.074500 -4.088177 -1.743181 4.772966 5.230283 -6.136180 19.622772 -33.630955 -17.269075 -161.419251 -49.096544 -171.575248 -19.172205 -13.557357 -6.307254 1.425169 13.872610 7.699883 -18.012627 -43.440344 -0.577405 -178.905477 -46.301977 165.172953 3.242452 -14.189366 11.928611 6.655003 -59.617251 -6.400039 -139.517226 77.544622 -133.322827 -0.403662 -19.846341 2.920979 -0.004243 0.002922 -0.001926 -14.060095 -60.546098 13.762901 118.944924 76.928123 117.080797 0.047738 -16.477614 -1.859353 0.006991 0.004022 0.003174
-8.465786 126.453526 28.155546 176.670461 -19.433579 -4.660648 -2.146063 7.551006 1.888480 -0.107980 0.357741 0.082333 -0.192277 0.634795 0.185153 -2.036513 7.083983 1.787725 -0.428863 20.487591 -1.714465 -0.068854 -3.976048 -1.666157 4.819614 5.187225 -6.207265 20.072556 -33.576997 -17.622205 -160.527524 -49.333127 -172.125194 -19.097452 -13.358071 -5.986120 1.561222 13.783094 7.721753 -18.110749 -43.369005 -0.125066 -179.510656 -46.411688 165.348941 3.302478 -13.794842 11.741355 6.645131 -59.615712 -6.382899 -139.558652 77.531202 -133.371940 -0.403484 -19.852712 2.915744 -0.004830 0.003900 -0.002193 -14.102161 -60.529484 13.793318 119.040590 76.950039 117.154044 0.074050 -16.477751 -1.868491 0.005892 0.004003 0.002675
-8.461431 126.453161 28.160672 176.662612 -19.439768 -4.652241 -2.148999 7.545667 1.857863 -0.090581 0.367197 0.087673 -0.173200 0.637517 0.167089 -2.004320 7.096849 1.745758 -0.401360 20.571349 -1.575167 -0.082906 -3.891121 -1.572059 4.814408 5.129370 -6.224872 20.451484 -33.498187 -17.945286 -159.797816 -49.544195 -172.576245 -19.060211 -13.218473 -5.771140 1.657852 13.667330 7.798110 -18.258720 -43.295260 0.374950 179.810379 -46.600815 165.541095 3.428425 -13.463657 11.489016 6.651760 -59.613092 -6.382318 -139.599836 77.523209 -133.408173 -0.404612 -19.861503 2.907662 -0.006595 0.005908 -0.002995 -14.161312 -60.517611 13.834718 119.139688 76.972322 117.230108 0.103315 -16.473220 -1.880740 0.004748 0.002241 0.002156
